<svg width="28" height="28" viewBox="0 0 28 28" fill="none" xmlns="http://www.w3.org/2000/svg">
<path d="M11.8 8.5L11.2326 10.0335C10.4886 12.0442 10.1165 13.0496 9.38309 13.7831C8.64967 14.5165 7.64428 14.8885 5.63349 15.6326L4.10004 16.2L5.63349 16.7674C7.64428 17.5115 8.64967 17.8836 9.38309 18.6169C10.1165 19.3504 10.4886 20.3558 11.2326 22.3665L11.8 23.9L12.3674 22.3665C13.1116 20.3558 13.4836 19.3504 14.217 18.6169C14.9504 17.8836 15.9558 17.5115 17.9665 16.7674L19.5 16.2L17.9665 15.6326C15.9558 14.8885 14.9504 14.5165 14.217 13.7831C13.4836 13.0496 13.1116 12.0442 12.3674 10.0335L11.8 8.5Z" stroke="#2249E2" stroke-width="1.65" stroke-linejoin="round"/>
<path d="M20.6 4.10001L20.3568 4.7572C20.0379 5.61896 19.8785 6.04986 19.5641 6.36417C19.2498 6.67849 18.819 6.83794 17.9572 7.15682L17.3 7.40001L17.9572 7.64319C18.819 7.96207 19.2498 8.12152 19.5641 8.43584C19.8785 8.75016 20.0379 9.18105 20.3568 10.0428L20.6 10.7L20.8432 10.0428C21.1621 9.18105 21.3215 8.75016 21.6359 8.43583C21.9501 8.12152 22.381 7.96207 23.2427 7.64319L23.9 7.40001L23.2427 7.15682C22.381 6.83794 21.9501 6.67849 21.6359 6.36417C21.3215 6.04986 21.1621 5.61896 20.8432 4.7572L20.6 4.10001Z" stroke="#2249E2" stroke-width="1.65" stroke-linejoin="round"/>
</svg>
