<svg width="18" height="14" viewBox="0 0 18 14" fill="none" xmlns="http://www.w3.org/2000/svg">
<path d="M10.875 13.25C10.7927 13.2505 10.7112 13.2347 10.6351 13.2036C10.5589 13.1725 10.4896 13.1267 10.4312 13.0687C10.3727 13.0106 10.3262 12.9415 10.2944 12.8654C10.2627 12.7892 10.2464 12.7075 10.2464 12.625C10.2464 12.5425 10.2627 12.4608 10.2944 12.3846C10.3262 12.3085 10.3727 12.2393 10.4312 12.1812L15.6187 6.99999L10.4312 1.81874C10.3136 1.70105 10.2474 1.54143 10.2474 1.37499C10.2474 1.20856 10.3136 1.04893 10.4312 0.931244C10.5489 0.813554 10.7086 0.747437 10.875 0.747437C11.0414 0.747437 11.2011 0.813554 11.3187 0.931244L16.9437 6.55624C17.0023 6.61435 17.0488 6.68347 17.0806 6.75963C17.1123 6.8358 17.1286 6.91749 17.1286 6.99999C17.1286 7.0825 17.1123 7.16419 17.0806 7.24035C17.0488 7.31652 17.0023 7.38564 16.9437 7.44374L11.3187 13.0687C11.2603 13.1267 11.1911 13.1725 11.1149 13.2036C11.0388 13.2347 10.9572 13.2505 10.875 13.25Z" fill="white"/>
<path d="M16.5 7.625H1.5C1.33424 7.625 1.17527 7.55915 1.05806 7.44194C0.940848 7.32473 0.875 7.16576 0.875 7C0.875 6.83424 0.940848 6.67527 1.05806 6.55806C1.17527 6.44085 1.33424 6.375 1.5 6.375H16.5C16.6658 6.375 16.8247 6.44085 16.9419 6.55806C17.0592 6.67527 17.125 6.83424 17.125 7C17.125 7.16576 17.0592 7.32473 16.9419 7.44194C16.8247 7.55915 16.6658 7.625 16.5 7.625Z" fill="white"/>
</svg>
