<svg width="18" height="14" viewBox="0 0 18 14" fill="none" xmlns="http://www.w3.org/2000/svg">
<path d="M7.12498 13.2501C7.20723 13.2506 7.28877 13.2348 7.36492 13.2037C7.44107 13.1726 7.51033 13.1268 7.56873 13.0689C7.62731 13.0108 7.6738 12.9416 7.70553 12.8655C7.73727 12.7893 7.7536 12.7076 7.7536 12.6251C7.7536 12.5426 7.73727 12.4609 7.70553 12.3848C7.6738 12.3086 7.62731 12.2395 7.56873 12.1814L2.38123 7.00012L7.56873 1.81887C7.68642 1.70118 7.75253 1.54155 7.75253 1.37512C7.75253 1.20868 7.68642 1.04906 7.56873 0.931366C7.45104 0.813676 7.29142 0.747559 7.12498 0.747559C6.95854 0.747559 6.79892 0.813676 6.68123 0.931366L1.05623 6.55637C0.997647 6.61447 0.95115 6.68359 0.919419 6.75976C0.887689 6.83592 0.871353 6.91761 0.871353 7.00012C0.871353 7.08262 0.887689 7.16431 0.919419 7.24048C0.95115 7.31664 0.997647 7.38576 1.05623 7.44387L6.68123 13.0689C6.73963 13.1268 6.80889 13.1726 6.88504 13.2037C6.96118 13.2348 7.04272 13.2506 7.12498 13.2501Z" fill="#1E1E1E"/>
<path d="M1.5 7.625H16.5C16.6658 7.625 16.8247 7.55915 16.9419 7.44194C17.0592 7.32473 17.125 7.16576 17.125 7C17.125 6.83424 17.0592 6.67527 16.9419 6.55806C16.8247 6.44085 16.6658 6.375 16.5 6.375H1.5C1.33424 6.375 1.17527 6.44085 1.05806 6.55806C0.940847 6.67527 0.875 6.83424 0.875 7C0.875 7.16576 0.940847 7.32473 1.05806 7.44194C1.17527 7.55915 1.33424 7.625 1.5 7.625Z" fill="#1E1E1E"/>
</svg>
