<svg width="21" height="20" viewBox="0 0 21 20" fill="none" xmlns="http://www.w3.org/2000/svg">
<g clip-path="url(#clip0_22_421)">
<path d="M12.375 16.25C12.2927 16.2505 12.2112 16.2347 12.135 16.2036C12.0589 16.1725 11.9896 16.1267 11.9312 16.0687C11.8726 16.0106 11.8261 15.9415 11.7944 15.8654C11.7627 15.7892 11.7463 15.7075 11.7463 15.625C11.7463 15.5425 11.7627 15.4608 11.7944 15.3846C11.8261 15.3085 11.8726 15.2393 11.9312 15.1812L17.1187 9.99999L11.9312 4.81874C11.8135 4.70105 11.7474 4.54143 11.7474 4.37499C11.7474 4.20856 11.8135 4.04893 11.9312 3.93124C12.0489 3.81355 12.2085 3.74744 12.375 3.74744C12.5414 3.74744 12.701 3.81355 12.8187 3.93124L18.4437 9.55624C18.5023 9.61435 18.5488 9.68347 18.5805 9.75963C18.6122 9.8358 18.6286 9.91749 18.6286 9.99999C18.6286 10.0825 18.6122 10.1642 18.5805 10.2404C18.5488 10.3165 18.5023 10.3856 18.4437 10.4437L12.8187 16.0687C12.7603 16.1267 12.6911 16.1725 12.6149 16.2036C12.5388 16.2347 12.4572 16.2505 12.375 16.25Z" fill="#212121"/>
<path d="M18 10.625H3C2.83424 10.625 2.67527 10.5592 2.55806 10.4419C2.44085 10.3247 2.375 10.1658 2.375 10C2.375 9.83424 2.44085 9.67527 2.55806 9.55806C2.67527 9.44085 2.83424 9.375 3 9.375H18C18.1658 9.375 18.3247 9.44085 18.4419 9.55806C18.5592 9.67527 18.625 9.83424 18.625 10C18.625 10.1658 18.5592 10.3247 18.4419 10.4419C18.3247 10.5592 18.1658 10.625 18 10.625Z" fill="#212121"/>
</g>
<defs>
<clipPath id="clip0_22_421">
<rect width="20" height="20" fill="white" transform="translate(0.5)"/>
</clipPath>
</defs>
</svg>
