<svg width="49" height="48" viewBox="0 0 49 48" fill="none" xmlns="http://www.w3.org/2000/svg">
<path d="M22.548 44C31.1484 44 38.3436 37.9844 40.1558 29.9314C40.527 28.282 40.7126 27.4572 40.1104 26.7046C39.5084 25.952 38.534 25.952 36.5854 25.952H22.548M22.548 44C12.5804 44 4.5 35.9196 4.5 25.952C4.5 17.3517 10.5156 10.1564 18.5686 8.34416C20.218 7.973 21.0428 7.78742 21.7954 8.3895C22.548 8.9916 22.548 9.96596 22.548 11.9147V25.952M22.548 44V25.952" stroke="#2249E2" stroke-width="3" stroke-linejoin="round"/>
<path d="M43.6082 14.0529C41.961 9.87176 38.6282 6.53906 34.447 4.8919C32.2566 4.02896 31.1614 3.59748 29.8306 4.50346C28.5 5.40944 28.5 6.89126 28.5 9.85494V13.913C28.5 16.7824 28.5 18.2171 29.3914 19.1086C30.2828 20 31.7176 20 34.587 20H38.645C41.6088 20 43.0906 20 43.9966 18.6693C44.9026 17.3387 44.471 16.2434 43.6082 14.0529Z" stroke="#2249E2" stroke-width="3" stroke-linejoin="round"/>
</svg>
