<svg width="28" height="28" viewBox="0 0 28 28" fill="none" xmlns="http://www.w3.org/2000/svg">
<path d="M13.0182 6.93385C13.3061 7.42976 13.45 7.67772 13.45 7.94999C13.45 8.22226 13.3061 8.47021 13.0182 8.96612L11.6438 11.3339C11.356 11.8298 11.212 12.0777 10.975 12.2138C10.7379 12.35 10.4501 12.35 9.87436 12.35H7.12561C6.54991 12.35 6.26205 12.35 6.02499 12.2138C5.78793 12.0777 5.64399 11.8298 5.35614 11.3339L3.98177 8.96612C3.69391 8.47021 3.54999 8.22226 3.54999 7.94999C3.54999 7.67772 3.69391 7.42976 3.98177 6.93385L5.35614 4.56612C5.64399 4.07021 5.78793 3.82226 6.02499 3.68612C6.26205 3.54999 6.54991 3.54999 7.12561 3.54999H9.87436C10.4501 3.54999 10.7379 3.54999 10.975 3.68612C11.212 3.82226 11.356 4.07021 11.6438 4.56612L13.0182 6.93385Z" stroke="#2249E2" stroke-width="1.65" stroke-linecap="round" stroke-linejoin="round"/>
<path d="M24.0182 13.5338C24.3061 14.0298 24.45 14.2777 24.45 14.55C24.45 14.8222 24.3061 15.0702 24.0182 15.5662L22.6438 17.9338C22.356 18.4298 22.212 18.6777 21.975 18.8138C21.7379 18.95 21.4501 18.95 20.8743 18.95H18.1256C17.5499 18.95 17.262 18.95 17.025 18.8138C16.7879 18.6777 16.6439 18.4298 16.3562 17.9338L14.9817 15.5662C14.6939 15.0702 14.55 14.8222 14.55 14.55C14.55 14.2777 14.6939 14.0298 14.9817 13.5338L16.3562 11.1661C16.6439 10.6702 16.7879 10.4223 17.025 10.2861C17.262 10.15 17.5499 10.15 18.1256 10.15H20.8743C21.4501 10.15 21.7379 10.15 21.975 10.2861C22.212 10.4223 22.356 10.6702 22.6438 11.1661L24.0182 13.5338Z" stroke="#2249E2" stroke-width="1.65" stroke-linecap="round" stroke-linejoin="round"/>
<path d="M13.0182 19.0338C13.3061 19.5298 13.45 19.7777 13.45 20.05C13.45 20.3222 13.3061 20.5702 13.0182 21.0662L11.6438 23.4338C11.356 23.9298 11.212 24.1777 10.975 24.3138C10.7379 24.45 10.4501 24.45 9.87436 24.45H7.12561C6.54991 24.45 6.26205 24.45 6.02499 24.3138C5.78793 24.1777 5.64399 23.9298 5.35614 23.4338L3.98177 21.0662C3.69391 20.5702 3.54999 20.3222 3.54999 20.05C3.54999 19.7777 3.69391 19.5298 3.98177 19.0338L5.35614 16.6662C5.64399 16.1702 5.78793 15.9222 6.02499 15.7862C6.26205 15.65 6.54991 15.65 7.12561 15.65H9.87436C10.4501 15.65 10.7379 15.65 10.975 15.7862C11.212 15.9222 11.356 16.1702 11.6438 16.6662L13.0182 19.0338Z" stroke="#2249E2" stroke-width="1.65" stroke-linecap="round" stroke-linejoin="round"/>
</svg>
