<svg width="20" height="20" viewBox="0 0 20 20" fill="none" xmlns="http://www.w3.org/2000/svg">
<path d="M10 2.51196C10.3094 2.51196 10.6064 2.63504 10.8252 2.85376L15 7.02856L17.5088 4.51978H17.5098C17.6724 4.35642 17.8794 4.24454 18.1055 4.19946C18.3316 4.15444 18.5664 4.17817 18.7793 4.26685H18.7803C18.9934 4.35522 19.1756 4.50469 19.3037 4.69653C19.4318 4.88841 19.5001 5.11424 19.5 5.34497V14.1663L19.4951 14.3479C19.4491 15.2539 19.0693 16.1136 18.4248 16.7581C17.7374 17.4455 16.8052 17.832 15.833 17.8333H4.16699L3.98535 17.8284C3.07936 17.7824 2.21969 17.4025 1.5752 16.7581C0.887768 16.0706 0.501231 15.1384 0.5 14.1663V5.34497L0.512695 5.1731C0.538009 5.00347 0.600202 4.8403 0.696289 4.69653C0.824482 4.50479 1.00761 4.35608 1.2207 4.26782C1.43378 4.17963 1.66834 4.15644 1.89453 4.20142C2.12049 4.24643 2.3282 4.35696 2.49121 4.51978L5 7.02856L9.1748 2.85376C9.39359 2.63504 9.69064 2.51196 10 2.51196Z" fill="#F26C77" stroke="url(#paint0_linear_121_453)"/>
<defs>
<linearGradient id="paint0_linear_121_453" x1="5.54968e-07" y1="2" x2="20" y2="18" gradientUnits="userSpaceOnUse">
<stop offset="0.252933" stop-color="white"/>
<stop offset="0.504808" stop-color="#D8E0E8"/>
<stop offset="0.70624" stop-color="white"/>
</linearGradient>
</defs>
</svg>
