<svg width="24" height="25" viewBox="0 0 24 25" fill="none" xmlns="http://www.w3.org/2000/svg">
<mask id="path-1-outside-1_149_857" maskUnits="userSpaceOnUse" x="0" y="2.5" width="22" height="22" fill="black">
<rect fill="white" y="2.5" width="22" height="22"/>
<path d="M11.024 22.5C15.3242 22.5 18.9218 19.4922 19.8279 15.4657C20.0135 14.641 20.1063 14.2286 19.8052 13.8523C19.5042 13.476 19.017 13.476 18.0427 13.476H11.024M11.024 22.5C6.04018 22.5 2 18.4598 2 13.476C2 9.17584 5.00779 5.57818 9.03431 4.67208C9.85901 4.4865 10.2714 4.39371 10.6477 4.69475C11.024 4.9958 11.024 5.48298 11.024 6.45734V13.476M11.024 22.5V13.476V22.5Z"/>
</mask>
<path d="M11.024 22.5C15.3242 22.5 18.9218 19.4922 19.8279 15.4657C20.0135 14.641 20.1063 14.2286 19.8052 13.8523C19.5042 13.476 19.017 13.476 18.0427 13.476H11.024M11.024 22.5C6.04018 22.5 2 18.4598 2 13.476C2 9.17584 5.00779 5.57818 9.03431 4.67208C9.85901 4.4865 10.2714 4.39371 10.6477 4.69475C11.024 4.9958 11.024 5.48298 11.024 6.45734V13.476M11.024 22.5V13.476V22.5Z" fill="#2249E2"/>
<path d="M19.8279 15.4657L18.3645 15.1364L18.3645 15.1364L19.8279 15.4657ZM19.8052 13.8523L18.6338 14.7893L18.634 14.7895L19.8052 13.8523ZM9.03431 4.67208L8.705 3.20868L8.705 3.20868L9.03431 4.67208ZM10.6477 4.69475L11.5848 3.52346L11.5847 3.52345L10.6477 4.69475ZM11.024 22.5V24C16.0409 24 20.2345 20.4911 21.2913 15.795L19.8279 15.4657L18.3645 15.1364C17.6091 18.4933 14.6075 21 11.024 21V22.5ZM19.8279 15.4657L21.2913 15.795C21.3716 15.4383 21.4834 14.9692 21.4982 14.5427C21.5167 14.0068 21.3941 13.4371 20.9764 12.9151L19.8052 13.8523L18.634 14.7895C18.5963 14.7424 18.551 14.6663 18.5229 14.5706C18.497 14.4828 18.5003 14.4278 18.5 14.439C18.4993 14.4571 18.4947 14.5138 18.4707 14.6422C18.4466 14.7707 18.4126 14.9225 18.3645 15.1364L19.8279 15.4657ZM19.8052 13.8523L20.9766 12.9153C20.5246 12.3503 19.9395 12.1298 19.4239 12.0436C18.9906 11.9711 18.4774 11.976 18.0427 11.976V13.476V14.976C18.2932 14.976 18.4807 14.9762 18.6398 14.9811C18.7995 14.9862 18.8847 14.9951 18.929 15.0025C18.9696 15.0093 18.9299 15.0077 18.8556 14.9696C18.769 14.9252 18.6902 14.8597 18.6338 14.7893L19.8052 13.8523ZM18.0427 13.476V11.976H11.024V13.476V14.976H18.0427V13.476ZM11.024 22.5V21C6.86861 21 3.5 17.6314 3.5 13.476H2H0.5C0.5 19.2882 5.21175 24 11.024 24V22.5ZM2 13.476H3.5C3.5 9.89251 6.00666 6.89091 9.36362 6.13549L9.03431 4.67208L8.705 3.20868C4.00892 4.26545 0.5 8.45917 0.5 13.476H2ZM9.03431 4.67208L9.36362 6.13549C9.57748 6.08736 9.72928 6.05341 9.8578 6.02931C9.98615 6.00525 10.0429 6.00066 10.061 6.00004C10.0722 5.99965 10.0173 6.00295 9.92945 5.97712C9.83383 5.94899 9.75775 5.90372 9.71066 5.86605L10.6477 4.69475L11.5847 3.52345C11.0628 3.10589 10.4931 2.98328 9.95727 3.00183C9.53083 3.01659 9.06176 3.12839 8.705 3.20868L9.03431 4.67208ZM10.6477 4.69475L9.71064 5.86604C9.64024 5.80972 9.57478 5.73097 9.5304 5.64438C9.49229 5.57004 9.49071 5.53034 9.49751 5.57101C9.50492 5.61527 9.51384 5.70047 9.51886 5.86025C9.52385 6.0193 9.524 6.20682 9.524 6.45734H11.024H12.524C12.524 6.02259 12.5289 5.50939 12.4564 5.0761C12.3702 4.56045 12.1497 3.97543 11.5848 3.52346L10.6477 4.69475ZM11.024 6.45734H9.524V13.476H11.024H12.524V6.45734H11.024ZM11.024 22.5H12.524V13.476H11.024H9.524V22.5H11.024Z" fill="white" mask="url(#path-1-outside-1_149_857)"/>
<path d="M14.2432 2.13184C14.7346 1.79726 15.2274 1.69733 15.7646 1.77441C16.2283 1.84097 16.7326 2.045 17.248 2.24805C19.5321 3.14786 21.3521 4.96785 22.252 7.25195C22.455 7.76737 22.659 8.27172 22.7256 8.73535C22.8027 9.27263 22.7028 9.76537 22.3682 10.2568C22.0054 10.7895 21.5122 11.0418 20.9395 11.1533C20.4245 11.2536 19.7828 11.25 19.0723 11.25H17.0439C16.3478 11.25 15.7494 11.2515 15.2734 11.1875C14.776 11.1206 14.3004 10.9703 13.915 10.585C13.5297 10.1996 13.3794 9.72399 13.3125 9.22656C13.2485 8.75058 13.25 8.15222 13.25 7.45605V5.42773C13.25 4.71726 13.2464 4.07545 13.3467 3.56055C13.4582 2.98784 13.7104 2.49457 14.2432 2.13184Z" fill="#2249E2" stroke="white" stroke-width="1.5" stroke-linejoin="round"/>
</svg>
