<svg width="24" height="25" viewBox="0 0 24 25" fill="none" xmlns="http://www.w3.org/2000/svg">
<path d="M4 19.1458V8.55426C4 5.70025 4 4.27325 4.87868 3.38663C5.75736 2.5 7.17157 2.5 10 2.5H14C16.8284 2.5 18.2426 2.5 19.1213 3.38663C20 4.27325 20 5.70025 20 8.55426V19.1458C20 20.6575 20 21.4133 19.538 21.7108C18.7831 22.1971 17.6161 21.1774 17.0291 20.8073C16.5441 20.5014 16.3017 20.3485 16.0325 20.3397C15.7417 20.3301 15.4949 20.4768 14.9709 20.8073L13.06 22.0124C12.5445 22.3374 12.2868 22.5 12 22.5C11.7132 22.5 11.4555 22.3374 10.94 22.0124L9.02913 20.8073C8.54415 20.5014 8.30166 20.3485 8.03253 20.3397C7.74172 20.3301 7.49493 20.4768 6.97087 20.8073C6.38395 21.1774 5.21687 22.1971 4.46195 21.7108C4 21.4133 4 20.6575 4 19.1458Z" fill="#2249E2"/>
<path d="M11 11.5H8" stroke="white" stroke-width="1.5" stroke-linecap="round" stroke-linejoin="round"/>
<path d="M14 7.5H8" stroke="white" stroke-width="1.5" stroke-linecap="round" stroke-linejoin="round"/>
</svg>
