<svg width="15" height="12" viewBox="0 0 15 12" fill="none" xmlns="http://www.w3.org/2000/svg">
<path d="M13.7938 10.8005V9.60108C13.7916 7.95623 13.1756 6.3714 12.0663 5.15687C10.957 3.94234 9.4344 3.18555 7.79647 3.03466V2.23822C8.02514 2.1062 8.20385 1.90241 8.3049 1.65847C8.40594 1.41453 8.42367 1.14406 8.35533 0.889015C8.28699 0.63397 8.1364 0.408602 7.92693 0.247864C7.71745 0.0871255 7.46079 0 7.19674 0C6.9327 0 6.67604 0.0871255 6.46656 0.247864C6.25708 0.408602 6.1065 0.63397 6.03816 0.889015C5.96982 1.14406 5.98755 1.41453 6.08859 1.65847C6.18963 1.90241 6.36835 2.1062 6.59701 2.23822V3.03466C4.95909 3.18555 3.43646 3.94234 2.32719 5.15687C1.21793 6.3714 0.601906 7.95623 0.599729 9.60108V10.8005C0.440671 10.8005 0.288127 10.8637 0.175656 10.9762C0.0631855 11.0887 0 11.2412 0 11.4003C0 11.5593 0.0631855 11.7119 0.175656 11.8243C0.288127 11.9368 0.440671 12 0.599729 12H13.7938C13.9528 12 14.1054 11.9368 14.2178 11.8243C14.3303 11.7119 14.3935 11.5593 14.3935 11.4003C14.3935 11.2412 14.3303 11.0887 14.2178 10.9762C14.1054 10.8637 13.9528 10.8005 13.7938 10.8005ZM1.79919 9.60108C2.08286 2.44392 12.313 2.44932 12.5943 9.60108V10.8005H1.79919V9.60108Z" fill="#163102"/>
</svg>
