<svg width="13" height="13" viewBox="0 0 13 13" fill="none" xmlns="http://www.w3.org/2000/svg">
<path d="M12.6826 2.16667L10.6746 0.158708L9.90871 0.924625L10.8333 1.84925V3.25C10.8333 3.53732 10.9475 3.81287 11.1506 4.01603C11.3538 4.2192 11.6293 4.33333 11.9167 4.33333V9.75C11.9167 9.89366 11.8596 10.0314 11.758 10.133C11.6564 10.2346 11.5187 10.2917 11.375 10.2917C11.2313 10.2917 11.0936 10.2346 10.992 10.133C10.8904 10.0314 10.8333 9.89366 10.8333 9.75V9.20833C10.8333 8.77736 10.6621 8.36403 10.3574 8.05929C10.0526 7.75454 9.63931 7.58333 9.20833 7.58333H8.66667V1.625C8.66667 1.19402 8.49546 0.780698 8.19072 0.475951C7.88597 0.171205 7.47264 0 7.04167 0L1.625 0C1.19402 0 0.780698 0.171205 0.475951 0.475951C0.171205 0.780698 0 1.19402 0 1.625L0 13H8.66667V8.66667H9.20833C9.35199 8.66667 9.48977 8.72373 9.59135 8.82532C9.69293 8.9269 9.75 9.06468 9.75 9.20833V9.75C9.75 10.181 9.92121 10.5943 10.226 10.899C10.5307 11.2038 10.944 11.375 11.375 11.375C11.806 11.375 12.2193 11.2038 12.524 10.899C12.8288 10.5943 13 10.181 13 9.75V2.93258C12.9993 2.64542 12.8852 2.37015 12.6826 2.16667ZM1.625 1.08333H7.04167C7.18533 1.08333 7.3231 1.1404 7.42468 1.24198C7.52627 1.34357 7.58333 1.48134 7.58333 1.625V4.875H1.08333V1.625C1.08333 1.48134 1.1404 1.34357 1.24198 1.24198C1.34357 1.1404 1.48134 1.08333 1.625 1.08333ZM1.08333 11.9167V5.95833H7.58333V11.9167H1.08333Z" fill="#163102"/>
</svg>
