<svg width="17" height="17" viewBox="0 0 17 17" fill="none" xmlns="http://www.w3.org/2000/svg">
<path d="M2.26278 9.97125C1.37848 10.8433 1.30675 12.4792 1.51371 13.9902C1.7015 15.3612 3.24405 16.0074 4.40048 15.2832C6.516 13.9585 8.7255 12.2132 10.8426 10.1254C13.0175 7.98055 14.2092 6.34772 15.2603 4.51037C15.8977 3.39623 15.5991 1.91065 14.3084 1.5812C12.8954 1.22052 11.0639 1.3685 9.44772 2.88827M2.26278 9.97125C1.67221 7.32208 3.7476 4.20179 8.61763 6.93767M2.26278 9.97125C2.70429 9.98024 3.69611 10.18 4.64303 10.8549M9.44772 2.88827C6.24966 2.12848 4.89419 4.43057 4.84952 5.80516M9.44772 2.88827C10.1323 3.05091 10.9014 3.35387 11.7601 3.83626" stroke="#FF7F3A" stroke-width="1.0625" stroke-linecap="round" stroke-linejoin="round"/>
</svg>
