<svg width="20" height="20" viewBox="0 0 20 20" fill="none" xmlns="http://www.w3.org/2000/svg">
<path d="M3.33337 5.83317C3.82491 6.33887 5.13315 8.33317 5.83337 8.33317C6.5336 8.33317 7.84184 6.33887 8.33337 5.83317M5.83337 7.49984V1.6665" stroke="#1E1E1E" stroke-width="1.25" stroke-linecap="round" stroke-linejoin="round"/>
<path d="M3.33337 10.8332V12.12C3.33337 14.8242 3.33337 16.1763 4.07177 17.0921C4.22094 17.2771 4.38947 17.4456 4.57448 17.5948C5.4903 18.3332 6.84239 18.3332 9.54654 18.3332C10.1345 18.3332 10.4285 18.3332 10.6977 18.2382C10.7537 18.2184 10.8085 18.1957 10.8621 18.1701C11.1197 18.0468 11.3275 17.839 11.7433 17.4233L15.6904 13.4762C16.1721 12.9944 16.413 12.7536 16.5399 12.4473C16.6667 12.141 16.6667 11.8003 16.6667 11.1191V8.33317C16.6667 5.19047 16.6667 3.61913 15.6904 2.64281C14.7141 1.6665 13.1427 1.6665 10 1.6665M10.8334 17.9165V17.4998C10.8334 15.1428 10.8334 13.9643 11.5656 13.2321C12.2979 12.4998 13.4764 12.4998 15.8334 12.4998H16.25" stroke="#1E1E1E" stroke-width="1.25" stroke-linecap="round" stroke-linejoin="round"/>
</svg>
