<svg width="24" height="25" viewBox="0 0 24 25" fill="none" xmlns="http://www.w3.org/2000/svg">
<path d="M3 12.4896V15C3 18.2998 3 19.9497 4.02513 20.9749C5.05025 22 6.70017 22 10 22H14C17.2998 22 18.9497 22 19.9749 20.9749C21 19.9497 21 18.2998 21 15V12.4896C21 10.8083 21 9.96773 20.6441 9.24005C20.2882 8.51237 19.6247 7.99628 18.2976 6.96411L16.2976 5.40855C14.2331 3.80285 13.2009 3 12 3C10.7991 3 9.76689 3.80285 7.70242 5.40855L5.70241 6.96411C4.37533 7.99628 3.71179 8.51237 3.3559 9.24005C3 9.96773 3 10.8083 3 12.4896Z" stroke="#757575" stroke-width="1.5" stroke-linecap="round" stroke-linejoin="round"/>
<path d="M15 22V17C15 15.5858 15 14.8787 14.5607 14.4393C14.1213 14 13.4142 14 12 14C10.5858 14 9.87868 14 9.43934 14.4393C9 14.8787 9 15.5858 9 17V22" stroke="#757575" stroke-width="1.5" stroke-linecap="square" stroke-linejoin="round"/>
</svg>
