<svg width="18" height="18" viewBox="0 0 18 18" fill="none" xmlns="http://www.w3.org/2000/svg">
<path d="M13.125 3.75024C13.7463 3.75024 14.25 4.25392 14.25 4.87524C14.25 5.49656 13.7463 6.00024 13.125 6.00024C12.5037 6.00024 12 5.49656 12 4.87524C12 4.25392 12.5037 3.75024 13.125 3.75024Z" stroke="#1E1E1E" stroke-width="1.125" stroke-linecap="round" stroke-linejoin="round"/>
<path d="M2.08067 8.35792C1.32831 9.19822 1.31213 10.4659 2.00262 11.3578C3.37283 13.1275 4.87256 14.6272 6.64225 15.9973C7.53405 16.6879 8.80178 16.6717 9.64208 15.9193C11.9234 13.8766 14.0126 11.7419 16.0289 9.39592C16.2283 9.16402 16.3529 8.87978 16.3809 8.5752C16.5047 7.22849 16.7589 3.3485 15.7052 2.2948C14.6515 1.24111 10.7715 1.49533 9.4248 1.61907C9.12023 1.64706 8.83598 1.77175 8.604 1.97108C6.25809 3.98734 4.12336 6.07658 2.08067 8.35792Z" stroke="#1E1E1E" stroke-width="1.125"/>
<path d="M5.25 10.5002L7.49998 12.7502" stroke="#1E1E1E" stroke-width="1.125" stroke-linecap="round" stroke-linejoin="round"/>
</svg>
