<svg width="20" height="20" viewBox="0 0 20 20" fill="none" xmlns="http://www.w3.org/2000/svg">
<path d="M1.66663 5L7.42748 8.26414C9.55129 9.4675 10.4486 9.4675 12.5725 8.26414L18.3333 5" stroke="#757575" stroke-width="1.25" stroke-linejoin="round"/>
<path d="M1.67977 11.2297C1.73424 13.7843 1.76148 15.0616 2.70409 16.0078C3.64669 16.954 4.95857 16.9869 7.58232 17.0528C9.19938 17.0935 10.8005 17.0935 12.4176 17.0528C15.0414 16.9869 16.3532 16.954 17.2959 16.0078C18.2385 15.0616 18.2657 13.7843 18.3201 11.2297C18.3377 10.4082 18.3377 9.59174 18.3201 8.77032C18.2657 6.21571 18.2385 4.9384 17.2959 3.99221C16.3532 3.04602 15.0414 3.01306 12.4176 2.94713C10.8005 2.9065 9.19938 2.9065 7.58231 2.94712C4.95857 3.01304 3.64669 3.046 2.70408 3.9922C1.76148 4.93839 1.73424 6.2157 1.67976 8.77032C1.66224 9.59174 1.66225 10.4082 1.67977 11.2297Z" stroke="#757575" stroke-width="1.25" stroke-linejoin="round"/>
</svg>
