<svg width="20" height="20" viewBox="0 0 20 20" fill="none" xmlns="http://www.w3.org/2000/svg">
<path d="M12.9167 15C12.9167 16.6108 11.6109 17.9167 10 17.9167C8.38921 17.9167 7.08337 16.6108 7.08337 15" stroke="#1E1E1E" stroke-width="1.25" stroke-linecap="round" stroke-linejoin="round"/>
<path d="M16.0259 15.0002H3.97406C3.15996 15.0002 2.5 14.3402 2.5 13.5261C2.5 13.1352 2.6553 12.7602 2.93174 12.4837L3.43443 11.9811C3.90327 11.5122 4.16667 10.8763 4.16667 10.2133V7.91683C4.16667 4.69517 6.77834 2.0835 10 2.0835C13.2217 2.0835 15.8333 4.69516 15.8333 7.91683V10.2133C15.8333 10.8763 16.0967 11.5122 16.5656 11.9811L17.0682 12.4837C17.3447 12.7602 17.5 13.1352 17.5 13.5261C17.5 14.3402 16.84 15.0002 16.0259 15.0002Z" stroke="#1E1E1E" stroke-width="1.25" stroke-linecap="round" stroke-linejoin="round"/>
</svg>
