<svg width="18" height="17" viewBox="0 0 18 17" fill="none" xmlns="http://www.w3.org/2000/svg">
<path d="M2.27051 8.49992C2.27051 5.32776 2.27051 3.74168 3.25597 2.75621C4.24144 1.77075 5.82752 1.77075 8.99967 1.77075C12.1718 1.77075 13.7579 1.77075 14.7434 2.75621C15.7288 3.74168 15.7288 5.32776 15.7288 8.49992C15.7288 11.672 15.7288 13.2581 14.7434 14.2437C13.7579 15.2291 12.1718 15.2291 8.99967 15.2291C5.82752 15.2291 4.24144 15.2291 3.25597 14.2437C2.27051 13.2581 2.27051 11.672 2.27051 8.49992Z" stroke="#37B5EF" stroke-width="1.0625" stroke-linejoin="round"/>
<path d="M5.45508 8.5H12.5441" stroke="#37B5EF" stroke-width="1.0625" stroke-linecap="round"/>
<path d="M12.544 6.37507H6.87455C6.17579 6.37507 5.559 6.38242 5.47205 6.14557C5.40421 5.96071 5.82905 5.38057 6.16905 4.95557" stroke="#37B5EF" stroke-width="1.0625" stroke-linecap="round"/>
<path d="M5.46484 10.625H11.1343C11.8331 10.625 12.4499 10.6177 12.5368 10.8545C12.6047 11.0394 12.1798 11.6195 11.8398 12.0445" stroke="#37B5EF" stroke-width="1.0625" stroke-linecap="round"/>
</svg>
