<svg width="20" height="20" viewBox="0 0 20 20" fill="none" xmlns="http://www.w3.org/2000/svg">
<path d="M16.2861 8.74984L18.3333 9.1665C17.9141 4.9554 14.3524 1.6665 10.0206 1.6665C5.40683 1.6665 1.66663 5.39746 1.66663 9.99984C1.66663 14.6022 5.40683 18.3332 10.0206 18.3332C13.4462 18.3332 16.3903 16.2763 17.6794 13.3332" stroke="#1E1E1E" stroke-width="1.25" stroke-linecap="round" stroke-linejoin="round"/>
<path d="M8.6143 9.06641C7.71432 9.06641 7.26432 9.71641 7.16432 10.1164C7.06432 10.5164 7.06432 11.9664 7.12432 12.5664C7.32432 13.3164 7.82432 13.6264 8.31432 13.7264C8.7643 13.7664 10.6643 13.7514 11.2143 13.7514C12.0143 13.7664 12.6143 13.4664 12.8643 12.5664C12.9143 12.2664 12.9643 10.6164 12.8393 10.1164C12.5743 9.31641 11.9143 9.06641 11.4143 9.06641H8.6143Z" stroke="#1E1E1E" stroke-width="1.25" stroke-linecap="round"/>
<path d="M8.54163 8.71542C8.54163 8.66542 8.54846 8.37758 8.54963 8.01545C8.55071 7.68454 8.52163 7.36545 8.67963 7.07345C9.27163 5.89545 10.9716 6.01545 11.3916 7.21545C11.4644 7.41302 11.4688 7.72622 11.4666 8.01545C11.4639 8.385 11.4716 8.71542 11.4716 8.71542" stroke="#1E1E1E" stroke-width="1.25" stroke-linecap="round"/>
</svg>
