<svg width="49" height="48" viewBox="0 0 49 48" fill="none" xmlns="http://www.w3.org/2000/svg">
<g clip-path="url(#clip0_121_648)">
<path d="M48.5 24C48.5 25.104 47.604 26 46.5 26H2.5C1.396 26 0.5 25.104 0.5 24C0.5 22.896 1.396 22 2.5 22H46.5C47.604 22 48.5 22.896 48.5 24ZM14.5 44H10.5C7.192 44 4.5 41.308 4.5 38V34C4.5 32.896 3.604 32 2.5 32C1.396 32 0.5 32.896 0.5 34V38C0.5 43.514 4.986 48 10.5 48H14.5C15.604 48 16.5 47.104 16.5 46C16.5 44.896 15.604 44 14.5 44ZM46.5 32C45.396 32 44.5 32.896 44.5 34V38C44.5 41.308 41.808 44 38.5 44H34.5C33.396 44 32.5 44.896 32.5 46C32.5 47.104 33.396 48 34.5 48H38.5C44.014 48 48.5 43.514 48.5 38V34C48.5 32.896 47.604 32 46.5 32ZM38.5 0H34.5C33.396 0 32.5 0.896 32.5 2C32.5 3.104 33.396 4 34.5 4H38.5C41.808 4 44.5 6.692 44.5 10V14C44.5 15.104 45.396 16 46.5 16C47.604 16 48.5 15.104 48.5 14V10C48.5 4.486 44.014 0 38.5 0ZM2.5 16C3.604 16 4.5 15.104 4.5 14V10C4.5 6.692 7.192 4 10.5 4H14.5C15.604 4 16.5 3.104 16.5 2C16.5 0.896 15.604 0 14.5 0H10.5C4.986 0 0.5 4.486 0.5 10V14C0.5 15.104 1.396 16 2.5 16Z" fill="#2249E2"/>
</g>
<defs>
<clipPath id="clip0_121_648">
<rect width="48" height="48" fill="white" transform="translate(0.5)"/>
</clipPath>
</defs>
</svg>
