<svg width="49" height="48" viewBox="0 0 49 48" fill="none" xmlns="http://www.w3.org/2000/svg">
<g clip-path="url(#clip0_125_606)">
<path d="M32.5 0H16.5C13.8488 0.00317572 11.3071 1.05776 9.43244 2.93244C7.55776 4.80712 6.50318 7.34881 6.5 10V46C6.50028 46.3638 6.59977 46.7206 6.78776 47.032C6.97575 47.3434 7.24512 47.5977 7.56688 47.7674C7.88863 47.9372 8.25058 48.0159 8.61376 47.9952C8.97694 47.9745 9.32761 47.8552 9.628 47.65L13.84 44.772L18.052 47.65C18.3848 47.8779 18.7787 47.9998 19.182 47.9998C19.5853 47.9998 19.9792 47.8779 20.312 47.65L24.512 44.772L28.712 47.65C29.045 47.8783 29.4393 48.0005 29.843 48.0005C30.2467 48.0005 30.641 47.8783 30.974 47.65L35.174 44.774L39.374 47.648C39.6742 47.8525 40.0245 47.9714 40.3872 47.9919C40.7499 48.0124 41.1114 47.9337 41.4327 47.7643C41.7541 47.5949 42.0232 47.3411 42.2113 47.0303C42.3993 46.7195 42.4991 46.3633 42.5 46V10C42.4968 7.34881 41.4422 4.80712 39.5676 2.93244C37.6929 1.05776 35.1512 0.00317572 32.5 0ZM38.5 42.2L36.3 40.696C35.9668 40.4673 35.5721 40.3448 35.168 40.3448C34.7638 40.3448 34.3692 40.4673 34.036 40.696L29.836 43.574L25.636 40.696C25.303 40.4677 24.9087 40.3455 24.505 40.3455C24.1013 40.3455 23.707 40.4677 23.374 40.696L19.174 43.574L14.974 40.696C14.6414 40.4686 14.2479 40.3469 13.845 40.3469C13.4421 40.3469 13.0486 40.4686 12.716 40.696L10.5 42.2V10C10.5 8.4087 11.1321 6.88258 12.2574 5.75736C13.3826 4.63214 14.9087 4 16.5 4H32.5C34.0913 4 35.6174 4.63214 36.7426 5.75736C37.8679 6.88258 38.5 8.4087 38.5 10V42.2Z" fill="#2249E2"/>
<path d="M32.5 16H16.5C15.3954 16 14.5 16.8954 14.5 18C14.5 19.1046 15.3954 20 16.5 20H32.5C33.6046 20 34.5 19.1046 34.5 18C34.5 16.8954 33.6046 16 32.5 16Z" fill="#2249E2"/>
<path d="M28.5 24H16.5C15.3954 24 14.5 24.8954 14.5 26C14.5 27.1046 15.3954 28 16.5 28H28.5C29.6046 28 30.5 27.1046 30.5 26C30.5 24.8954 29.6046 24 28.5 24Z" fill="#2249E2"/>
</g>
<defs>
<clipPath id="clip0_125_606">
<rect width="48" height="48" fill="white" transform="translate(0.5)"/>
</clipPath>
</defs>
</svg>
