<svg width="12" height="10" viewBox="0 0 12 10" fill="none" xmlns="http://www.w3.org/2000/svg">
<path d="M6.7585 0.241009C6.68039 0.318478 6.61839 0.410645 6.57609 0.512194C6.53378 0.613743 6.512 0.722665 6.512 0.832674C6.512 0.942684 6.53378 1.05161 6.57609 1.15316C6.61839 1.2547 6.68039 1.34687 6.7585 1.42434L9.50016 4.16601H1.16683C0.945816 4.16601 0.733854 4.2538 0.577574 4.41009C0.421294 4.56637 0.333496 4.77833 0.333496 4.99934C0.333496 5.22035 0.421294 5.43232 0.577574 5.5886C0.733854 5.74488 0.945816 5.83267 1.16683 5.83267H9.50016L6.7585 8.57434C6.68039 8.65181 6.61839 8.74398 6.57609 8.84553C6.53378 8.94708 6.512 9.056 6.512 9.16601C6.512 9.27602 6.53378 9.38494 6.57609 9.48649C6.61839 9.58804 6.68039 9.6802 6.7585 9.75767C6.91463 9.91288 7.12584 10 7.346 10C7.56615 10 7.77736 9.91288 7.9335 9.75767L11.5085 6.17434C11.8215 5.86321 11.9983 5.44065 12.0002 4.99934C11.9961 4.56092 11.8195 4.14176 11.5085 3.83267L7.9335 0.249341C7.77846 0.0930195 7.56787 0.0043993 7.34772 0.00283813C7.12756 0.00127697 6.91573 0.0869017 6.7585 0.241009Z" fill="#2249E2"/>
</svg>
