<svg width="18" height="17" viewBox="0 0 18 17" fill="none" xmlns="http://www.w3.org/2000/svg">
<path d="M6.68441 15.2286C7.59967 13.654 9.69584 13.4683 10.8897 14.6716C11.1566 14.9406 11.29 15.0752 11.4084 15.0912C11.5267 15.1073 12.2694 14.6814 12.5331 14.5303C12.8018 14.3762 13.5469 13.9488 13.5937 13.837C13.6405 13.7252 13.5915 13.5345 13.4935 13.1533C13.1369 11.767 14.0016 10.3081 15.3831 9.93182C15.7528 9.8311 15.9376 9.78073 16.0106 9.68447C16.0837 9.58821 16.0837 8.74161 16.0837 8.43185C16.0837 8.12217 16.0837 7.2755 16.0106 7.17924C15.9376 7.08298 15.7528 7.03261 15.3831 6.93194C14.0014 6.55563 13.136 5.09672 13.4924 3.71037C13.5904 3.32908 13.6394 3.13843 13.5926 3.02664C13.5458 2.91486 12.8007 2.48751 12.532 2.33343C12.2683 2.18223 11.5256 1.75632 11.4073 1.77242C11.289 1.78852 11.1555 1.92303 10.8885 2.19205C9.85486 3.2336 8.14466 3.23364 7.11103 2.19212C6.84405 1.9231 6.71056 1.78859 6.59224 1.77249C6.47391 1.75639 5.73125 2.18231 5.46758 2.33352C5.19889 2.48761 4.45372 2.91494 4.4069 3.02674C4.36008 3.13854 4.40911 3.32916 4.50717 3.71042C4.86372 5.09672 3.99907 6.5556 2.61755 6.93192C2.24786 7.03261 2.06302 7.08298 1.99001 7.17931C1.91699 7.2755 1.91699 8.12217 1.91699 8.43185C1.91699 8.74161 1.91699 9.58821 1.99001 9.68454C2.06303 9.7808 2.24778 9.8311 2.61729 9.93175C2.62163 9.93295 2.62596 9.93416 2.63028 9.93529" stroke="#EC7490" stroke-width="1.0625" stroke-linecap="round"/>
<path d="M2.2633 12.8796C3.0283 12.1149 5.6293 9.54051 5.8843 9.24308C6.15387 8.92872 5.9353 8.50394 6.06535 7.18693C6.12828 6.54973 6.26541 6.07233 6.6578 5.71707C7.1253 5.27525 7.5078 5.27525 8.8253 5.24551C9.9728 5.27525 10.1088 5.1478 10.2278 5.44518C10.3128 5.6576 10.0578 5.78504 9.7518 6.12491C9.0718 6.80462 8.6723 7.1445 8.63405 7.35693C8.3578 8.29151 9.4458 8.84379 10.0408 8.24901C10.2658 8.02411 11.3073 6.97455 11.4093 6.88959C11.4858 6.82162 11.6689 6.8249 11.7578 6.93207C11.8343 7.00719 11.8428 7.01703 11.8343 7.35686C11.8264 7.6715 11.83 8.12314 11.8309 8.58887C11.8322 9.19237 11.8003 9.86337 11.5453 10.2032C11.0353 10.9679 10.1853 11.0104 9.4203 11.0444C8.6978 11.0869 8.1028 11.0104 7.9158 11.1463C7.7628 11.2228 6.9553 12.0724 5.9778 13.0495L4.2353 14.7913C2.7903 15.9384 1.2008 14.1541 2.2633 12.8796Z" stroke="#EC7490" stroke-width="1.0625" stroke-linecap="round"/>
</svg>
