<svg width="18" height="17" viewBox="0 0 18 17" fill="none" xmlns="http://www.w3.org/2000/svg">
<path d="M6.16699 11.3333L12.3437 10.8186C14.2764 10.6576 14.7103 10.2354 14.9245 8.30797L15.3753 4.25" stroke="#3DC269" stroke-width="1.0625" stroke-linecap="round"/>
<path d="M4.75 4.25H16.0833" stroke="#3DC269" stroke-width="1.0625" stroke-linecap="round"/>
<path d="M4.74967 15.5833C5.53208 15.5833 6.16634 14.9491 6.16634 14.1667C6.16634 13.3843 5.53208 12.75 4.74967 12.75C3.96727 12.75 3.33301 13.3843 3.33301 14.1667C3.33301 14.9491 3.96727 15.5833 4.74967 15.5833Z" stroke="#3DC269" stroke-width="1.0625"/>
<path d="M12.5417 15.5833C13.3241 15.5833 13.9583 14.9491 13.9583 14.1667C13.9583 13.3843 13.3241 12.75 12.5417 12.75C11.7593 12.75 11.125 13.3843 11.125 14.1667C11.125 14.9491 11.7593 15.5833 12.5417 15.5833Z" stroke="#3DC269" stroke-width="1.0625"/>
<path d="M6.16699 14.1667H11.1253" stroke="#3DC269" stroke-width="1.0625" stroke-linecap="round"/>
<path d="M1.91699 1.41675H2.60124C3.27039 1.41675 3.85367 1.85917 4.01597 2.48982L6.12344 10.6793C6.22994 11.0931 6.1388 11.5315 5.87533 11.8729L5.19808 12.7501" stroke="#3DC269" stroke-width="1.0625" stroke-linecap="round"/>
</svg>
