<svg width="10" height="10" viewBox="0 0 10 10" fill="none" xmlns="http://www.w3.org/2000/svg">
<path d="M2.04901 1.21537C2.04856 1.32538 2.06989 1.43439 2.11178 1.53611C2.15367 1.63783 2.21529 1.73025 2.29308 1.80804C2.37087 1.88583 2.46329 1.94745 2.56501 1.98934C2.66673 2.03123 2.77574 2.05256 2.88575 2.05211H6.76305L0.870494 7.94467C0.714214 8.10095 0.626417 8.31291 0.626417 8.53392C0.626416 8.75494 0.714213 8.9669 0.870494 9.12318C1.02677 9.27946 1.23874 9.36726 1.45975 9.36726C1.68076 9.36726 1.89272 9.27946 2.04901 9.12318L7.94156 3.23062L7.94156 7.10792C7.94111 7.21793 7.96245 7.32694 8.00434 7.42866C8.04623 7.53039 8.10784 7.62281 8.18563 7.7006C8.26342 7.77839 8.35584 7.84 8.45756 7.88189C8.55929 7.92378 8.6683 7.94512 8.7783 7.94467C8.99846 7.94401 9.20941 7.85627 9.36508 7.70059C9.52075 7.54492 9.6085 7.33397 9.60915 7.11382L9.60326 2.05211C9.60458 1.6108 9.43081 1.18697 9.12007 0.8736C8.8072 0.566457 8.38589 0.394972 7.94745 0.396303L2.88575 0.390411C2.66559 0.389499 2.45401 0.475747 2.29724 0.630317C2.14046 0.784887 2.05122 0.995219 2.04901 1.21537Z" fill="white"/>
</svg>
