<svg width="20" height="20" viewBox="0 0 20 20" fill="none" xmlns="http://www.w3.org/2000/svg">
<path d="M1.66663 10.0002C1.66663 7.05226 1.66663 5.5783 2.54396 4.59425C2.68428 4.43685 2.83894 4.29129 3.00618 4.15922C4.05173 3.3335 5.61781 3.3335 8.74996 3.3335H11.25C14.3821 3.3335 15.9482 3.3335 16.9937 4.15922C17.161 4.29129 17.3156 4.43685 17.456 4.59425C18.3333 5.5783 18.3333 7.05226 18.3333 10.0002C18.3333 12.9481 18.3333 14.422 17.456 15.4061C17.3156 15.5635 17.161 15.709 16.9937 15.8411C15.9482 16.6668 14.3821 16.6668 11.25 16.6668H8.74996C5.61781 16.6668 4.05173 16.6668 3.00618 15.8411C2.83894 15.709 2.68428 15.5635 2.54396 15.4061C1.66663 14.422 1.66663 12.9481 1.66663 10.0002Z" stroke="#1E1E1E" stroke-width="1.25" stroke-linecap="round" stroke-linejoin="round"/>
<path d="M8.33337 13.3335H9.58337" stroke="#1E1E1E" stroke-width="1.25" stroke-miterlimit="10" stroke-linecap="round" stroke-linejoin="round"/>
<path d="M12.0834 13.3335H15" stroke="#1E1E1E" stroke-width="1.25" stroke-miterlimit="10" stroke-linecap="round" stroke-linejoin="round"/>
<path d="M1.66663 7.5H18.3333" stroke="#1E1E1E" stroke-width="1.25" stroke-linejoin="round"/>
</svg>
