<svg width="17" height="17" viewBox="0 0 17 17" fill="none" xmlns="http://www.w3.org/2000/svg">
<path d="M6.17448 7.01368C6.38627 7.22546 6.38627 7.56833 6.17448 7.77957C5.9627 7.99135 5.61984 7.99135 5.40859 7.77957C5.19681 7.56778 5.19681 7.22492 5.40859 7.01368C5.62038 6.80189 5.96324 6.80189 6.17448 7.01368ZM13.6774 10.3096L13.3714 10.6156C13.3568 11.2835 13.0978 11.9465 12.5941 12.4567L10.8787 14.1943C10.3679 14.7116 9.68654 14.9976 8.95965 14.9998H8.95044C8.22734 14.9998 7.54757 14.7181 7.03625 14.2068L3.01938 10.224C2.66731 9.8725 2.49723 9.38881 2.55139 8.89537L2.96575 5.14932C2.99338 4.90233 3.18458 4.70571 3.43049 4.67213L7.16191 4.16189C7.66673 4.09473 8.1748 4.26643 8.5312 4.62284L12.58 8.63754C12.7896 8.84716 12.9576 9.08332 13.0843 9.33519C13.5241 8.70362 13.4624 7.82128 12.8991 7.25796L8.7874 3.24705C8.66336 3.12301 8.4922 3.0656 8.32646 3.08889L4.59504 3.59912C4.29767 3.6392 4.02522 3.43175 3.9846 3.13601C3.94451 2.83973 4.15197 2.56674 4.44771 2.52611L8.17967 2.01534C8.67853 1.94438 9.19201 2.11879 9.54896 2.47682L13.6595 6.48774C14.7136 7.54124 14.7195 9.25394 13.6769 10.3102L13.6774 10.3096ZM11.8152 9.40506L7.76639 5.39035C7.6456 5.26957 7.47607 5.21378 7.30761 5.2349L3.99543 5.68826L3.62765 9.01399C3.60978 9.17811 3.66611 9.33952 3.7831 9.45597L7.79997 13.4387C8.10817 13.7475 8.51603 13.9159 8.9499 13.9159H8.95531C9.39188 13.9148 9.80083 13.7431 10.1069 13.4322L11.8223 11.6946C12.4479 11.0609 12.4446 10.0334 11.8147 9.40398L11.8152 9.40506Z" fill="#1E1E1E"/>
</svg>
