<svg width="27" height="27" viewBox="0 0 27 27" fill="none" xmlns="http://www.w3.org/2000/svg">
<path d="M2.75 14.0375C2.75 12.8501 3.71259 11.8875 4.9 11.8875C6.68111 11.8875 8.125 13.3314 8.125 15.1125V19.4125C8.125 21.1937 6.68111 22.6375 4.9 22.6375C3.71259 22.6375 2.75 21.675 2.75 20.4875V14.0375Z" stroke="#2249E2" stroke-width="1.6125" stroke-linecap="round" stroke-linejoin="round"/>
<path d="M17.2396 8.99175L16.9533 9.91633C16.7188 10.674 16.6015 11.0528 16.6917 11.352C16.7647 11.5939 16.9248 11.8026 17.1432 11.9399C17.413 12.1095 17.8212 12.1095 18.6375 12.1095H19.0718C21.8347 12.1095 23.2161 12.1095 23.8686 12.9274C23.9431 13.0208 24.0094 13.1202 24.0668 13.2245C24.5687 14.1365 23.9981 15.3653 22.8568 17.8227C21.8094 20.0778 21.2857 21.2054 20.3133 21.8691C20.2193 21.9333 20.1225 21.9939 20.0234 22.0507C18.9997 22.6375 17.7314 22.6375 15.1946 22.6375H14.6444C11.5711 22.6375 10.0345 22.6375 9.07975 21.7125C8.125 20.7873 8.125 19.2985 8.125 16.3207V15.2741C8.125 13.7092 8.125 12.9268 8.40272 12.2107C8.68043 11.4945 9.2122 10.9057 10.2757 9.72797L14.674 4.85762C14.7843 4.73548 14.8394 4.6744 14.8881 4.63208C15.342 4.23705 16.0426 4.28151 16.4395 4.73055C16.482 4.77865 16.5285 4.84617 16.6214 4.98122C16.7667 5.19247 16.8394 5.2981 16.9028 5.40274C17.4698 6.33958 17.6413 7.45246 17.3816 8.50896C17.3526 8.62696 17.315 8.74863 17.2396 8.99175Z" stroke="#2249E2" stroke-width="1.6125" stroke-linecap="round" stroke-linejoin="round"/>
</svg>
